HIERARCHY
ROOT Hips
{
	OFFSET 0.00000 0.00000 0.00000
	CHANNELS 6 Xposition Yposition Zposition Zrotation Yrotation Xrotation 
	JOINT LHipJoint
	{
		OFFSET 0 0 0
		CHANNELS 3 Zrotation Yrotation Xrotation
		JOINT LeftUpLeg
		{
			OFFSET 1.64549 -1.70879 0.84566
			CHANNELS 3 Zrotation Yrotation Xrotation
			JOINT LeftLeg
			{
				OFFSET 2.24963 -6.18082 0.00000
				CHANNELS 3 Zrotation Yrotation Xrotation
				JOINT LeftFoot
				{
					OFFSET 2.71775 -7.46697 0.00000
					CHANNELS 3 Zrotation Yrotation Xrotation
					JOINT LeftToeBase
					{
						OFFSET 0.18768 -0.51564 2.24737
						CHANNELS 3 Zrotation Yrotation Xrotation
						End Site
						{
							OFFSET 0.00000 -0.00000 1.15935
						}
					}
				}
			}
		}
	}
	JOINT RHipJoint
	{
		OFFSET 0 0 0
		CHANNELS 3 Zrotation Yrotation Xrotation
		JOINT RightUpLeg
		{
			OFFSET -1.58830 -1.70879 0.84566
			CHANNELS 3 Zrotation Yrotation Xrotation
			JOINT RightLeg
			{
				OFFSET -2.25006 -6.18201 0.00000
				CHANNELS 3 Zrotation Yrotation Xrotation
				JOINT RightFoot
				{
					OFFSET -2.72829 -7.49593 0.00000
					CHANNELS 3 Zrotation Yrotation Xrotation
					JOINT RightToeBase
					{
						OFFSET -0.21541 -0.59185 2.10643
						CHANNELS 3 Zrotation Yrotation Xrotation
						End Site
						{
							OFFSET -0.00000 -0.00000 1.09838
						}
					}
				}
			}
		}
	}
	JOINT LowerBack
	{
		OFFSET 0 0 0
		CHANNELS 3 Zrotation Yrotation Xrotation
		JOINT Spine
		{
			OFFSET 0.03142 2.10496 -0.11038
			CHANNELS 3 Zrotation Yrotation Xrotation
			JOINT Spine1
			{
				OFFSET -0.01863 2.10897 -0.06956
				CHANNELS 3 Zrotation Yrotation Xrotation
				JOINT Neck
				{
					OFFSET 0 0 0
					CHANNELS 3 Zrotation Yrotation Xrotation
					JOINT Neck1
					{
						OFFSET -0.02267 1.73238 0.00451
						CHANNELS 3 Zrotation Yrotation Xrotation
						JOINT Head
						{
							OFFSET -0.05808 1.54724 -0.61749
							CHANNELS 3 Zrotation Yrotation Xrotation
							End Site
							{
								OFFSET -0.01396 1.71468 -0.21082
							}
						}
					}
				}
				JOINT LeftShoulder
				{
					OFFSET 0 0 0
					CHANNELS 3 Zrotation Yrotation Xrotation
					JOINT LeftArm
					{
						OFFSET 3.44898 0.50298 0.21920
						CHANNELS 3 Zrotation Yrotation Xrotation
						JOINT LeftForeArm
						{
							OFFSET 5.41917 -0.00000 -0.00000
							CHANNELS 3 Zrotation Yrotation Xrotation
							JOINT LeftHand
							{
								OFFSET 2.44373 -0.00000 0.00000
								CHANNELS 3 Zrotation Yrotation Xrotation
								JOINT LeftFingerBase
								{
									OFFSET 0 0 0
									CHANNELS 3 Zrotation Yrotation Xrotation
									JOINT LeftHandIndex1
									{
										OFFSET 0.72750 -0.00000 0.00000
										CHANNELS 3 Zrotation Yrotation Xrotation
										End Site
										{
											OFFSET 0.58653 -0.00000 0.00000
										}
									}
								}
								JOINT LThumb
								{
									OFFSET 0 0 0
									CHANNELS 3 Zrotation Yrotation Xrotation
									End Site
									{
										OFFSET 0.59549 -0.00000 0.59549
									}
								}
							}
						}
					}
				}
				JOINT RightShoulder
				{
					OFFSET 0 0 0
					CHANNELS 3 Zrotation Yrotation Xrotation
					JOINT RightArm
					{
						OFFSET -3.23015 0.55830 0.31051
						CHANNELS 3 Zrotation Yrotation Xrotation
						JOINT RightForeArm
						{
							OFFSET -5.58976 -0.00010 0.00014
							CHANNELS 3 Zrotation Yrotation Xrotation
							JOINT RightHand
							{
								OFFSET -2.48060 -0.00000 0.00000
								CHANNELS 3 Zrotation Yrotation Xrotation
								JOINT RightFingerBase
								{
									OFFSET 0 0 0
									CHANNELS 3 Zrotation Yrotation Xrotation
									JOINT RightHandIndex1
									{
										OFFSET -0.81601 -0.00000 0.00000
										CHANNELS 3 Zrotation Yrotation Xrotation
										End Site
										{
											OFFSET -0.65789 -0.00000 0.00000
										}
									}
								}
								JOINT RThumb
								{
									OFFSET 0 0 0
									CHANNELS 3 Zrotation Yrotation Xrotation
									End Site
									{
										OFFSET -0.66793 -0.00000 0.66793
									}
								}
							}
						}
					}
				}
			}
		}
	}
}
MOTION
Frames: 10
Frame Time: .0083333
2.1169 16.6248 17.1024 -0.8226 -3.5659 18.5825 0.0000 0.0000 0.0000 0.4854 -22.9313 -65.5693 4.0552 12.2336 36.5633 -1.9467 25.8007 -20.9140 2.3525 9.5647 27.5784 0.0000 0.0000 0.0000 31.8930 9.1539 -23.5030 -3.3021 -11.1687 32.8511 -4.3503 -17.1271 -47.5731 -2.1256 -9.1230 26.1807 1.9369 2.6849 0.9473 -0.1820 3.7066 -6.8412 -1.5449 1.7093 -7.5392 -0.2394 0.6218 -8.6816 1.4435 0.5908 23.8878 0.5918 0.4142 8.8771 0.0000 0.0000 0.0000 -71.4632 -11.6697 76.4720 116.7938 -57.1055 -82.9786 -0.0000 0.0000 -57.5744 -13.4327 16.4930 -3.8790 -7.1250 0.0000 -0.0000 -36.5378 43.2252 1.8754 0.0000 0.0000 0.0000 82.9417 17.0958 37.5067 -106.0224 59.0074 -73.8295 0.0000 -0.0000 -91.6244 13.5243 3.7614 0.9040 7.1250 -0.0000 -0.0000 29.1651 -25.5871 15.7457
2.1344 16.6186 17.1792 -1.9678 -3.2538 18.9044 0.0000 0.0000 0.0000 2.1724 -23.1032 -66.4526 3.9803 12.1341 36.2080 -1.4868 24.3618 -22.6936 2.7817 10.3329 30.0617 0.0000 0.0000 0.0000 33.1511 8.4787 -23.6342 -3.3015 -11.1678 32.8480 -4.3076 -16.8118 -47.2139 -2.0736 -9.0177 25.8506 3.4130 2.5970 0.8295 0.1320 3.6839 -7.0788 -2.0353 1.6116 -7.6665 -0.3103 0.8778 -8.2118 1.3811 0.9821 22.6968 0.6096 0.5820 8.3785 -0.0000 -0.0000 0.0000 -71.1841 -12.5631 78.9148 112.6336 -57.9730 -79.4679 -0.0000 0.0000 -53.4453 -14.0010 15.3907 -3.7861 -7.1250 0.0000 -0.0000 -36.4121 42.2356 2.9206 -0.0000 -0.0000 0.0000 83.7604 16.7692 37.7725 -102.4123 59.4098 -70.7280 0.0000 -0.0000 -93.1045 14.0793 3.6187 0.9069 7.1250 -0.0000 -0.0000 29.5584 -25.6796 15.9509
2.1336 16.6047 17.2314 -2.0856 -3.1633 19.0211 0.0000 0.0000 0.0000 2.7127 -23.4216 -67.1265 3.9324 12.0699 35.9797 -0.7635 22.1476 -25.3685 3.4937 11.4543 33.8278 0.0000 0.0000 0.0000 33.3484 8.1516 -23.6794 -3.3002 -11.1659 32.8414 -4.2553 -16.8241 -47.0199 -2.0522 -8.9739 25.7137 3.4959 2.4059 1.1371 0.2337 3.4590 -7.3312 -1.9830 1.4843 -8.1367 -0.2243 1.1423 -7.5752 1.1834 1.3827 21.4153 0.5519 0.7569 7.8308 -0.0000 0.0000 0.0000 -70.8189 -13.6016 80.8318 108.2694 -58.7005 -75.7527 -0.0000 0.0000 -50.5313 -13.7844 14.1262 -3.4265 -7.1250 0.0000 -0.0000 -35.6269 41.1974 3.9173 -0.0000 0.0000 0.0000 84.5238 16.4436 38.2360 -98.4101 59.7310 -67.2767 0.0000 -0.0000 -94.0548 13.8637 3.5004 0.8633 7.1250 -0.0000 -0.0000 29.4498 -25.7997 15.7748
2.1400 16.5978 17.2906 -2.1200 -3.0959 18.9758 0.0000 0.0000 0.0000 3.0252 -23.7825 -67.5388 3.9233 12.0576 35.9362 -0.0661 19.9883 -27.7478 4.1308 12.3324 36.9182 0.0000 0.0000 0.0000 33.4434 7.6379 -23.5370 -3.2794 -11.1341 32.7336 -4.0990 -17.2139 -46.6607 -1.8789 -8.6091 24.5800 3.6233 2.1724 1.5478 0.2580 3.1760 -7.4626 -2.0298 1.3249 -8.5343 -0.0005 1.4147 -7.4610 0.9296 1.7772 20.4759 0.4573 0.9376 7.5018 -0.0000 -0.0000 0.0000 -70.2998 -14.7330 82.2452 104.3574 -59.2066 -72.4008 -0.0000 0.0000 -48.8523 -16.7993 15.4303 -4.5925 -7.1250 0.0000 -0.0000 -38.5406 41.9334 3.5125 -0.0000 -0.0000 0.0000 85.4280 16.2063 38.6781 -94.2169 59.9327 -63.6511 0.0000 -0.0000 -94.3327 13.7007 3.3209 0.8091 7.1250 -0.0000 -0.0000 29.3904 -25.9710 15.5924
2.1483 16.5790 17.3409 -2.5332 -3.0022 18.7502 0.0000 0.0000 0.0000 3.6001 -24.0045 -67.6921 3.9039 12.0315 35.8433 0.3616 18.5783 -29.0622 4.5120 12.8122 38.6694 0.0000 0.0000 0.0000 33.9623 7.3796 -23.2043 -3.2966 -11.1604 32.8227 -4.0155 -17.6726 -46.6336 -1.7038 -8.2197 23.3835 4.1249 1.9622 2.3582 0.3906 2.9772 -7.4983 -2.1887 1.1817 -9.0522 -0.0195 1.6307 -7.3967 0.8062 2.1007 19.3281 0.4380 1.0797 7.1152 -0.0000 -0.0000 0.0000 -69.7626 -16.1870 83.6184 100.5878 -59.5721 -69.1562 -0.0000 0.0000 -47.9215 -19.6394 17.1543 -6.0085 -7.1250 0.0000 -0.0000 -41.5704 42.9830 2.5650 -0.0000 -0.0000 0.0000 86.2946 15.9936 38.8587 -89.8474 59.9999 -59.8678 0.0000 -0.0000 -94.0964 14.1641 2.8428 0.7171 7.1250 -0.0000 -0.0000 29.8136 -26.3684 15.5587
2.1640 16.5777 17.4269 -2.2212 -2.9073 18.5722 0.0000 0.0000 0.0000 3.3067 -24.6498 -67.6587 3.9028 12.0299 35.8379 0.2782 18.9257 -28.8974 4.5165 12.8177 38.6897 0.0000 0.0000 0.0000 33.6126 6.4658 -23.0083 -3.3118 -11.1835 32.9012 -4.0822 -17.1299 -46.5413 -1.6849 -8.1764 23.2512 4.0777 1.7023 2.3537 0.3211 2.6121 -7.3723 -2.1985 1.0069 -8.9324 -0.2124 1.8364 -7.2202 0.8162 2.4065 17.9584 0.4844 1.2153 6.6385 -0.0000 -0.0000 0.0000 -69.1155 -18.0406 84.9926 96.6771 -59.8309 -65.7792 -0.0000 0.0000 -47.4355 -21.8459 18.5657 -7.2741 -7.1250 0.0000 -0.0000 -44.0006 43.8140 1.6355 -0.0000 -0.0000 0.0000 86.9897 15.7960 39.0764 -85.4285 59.9209 -56.0420 0.0000 -0.0000 -93.2476 14.4518 2.4201 0.6235 7.1250 -0.0000 -0.0000 30.1115 -26.7263 15.4627
2.1644 16.5587 17.4854 -2.2152 -3.2043 18.4986 0.0000 0.0000 0.0000 3.3248 -24.6764 -67.8111 3.9292 12.0656 35.9644 0.2975 18.9555 -29.0740 4.7881 13.1412 39.8992 0.0000 0.0000 0.0000 33.5524 6.8159 -22.5922 -3.3276 -11.2073 32.9823 -4.1610 -17.0243 -46.7808 -1.7895 -8.4131 23.9759 3.8602 1.5703 2.7742 0.3761 2.4457 -7.4485 -2.0197 0.9327 -9.2869 -0.1465 2.1532 -6.8924 0.7667 2.8358 16.8566 0.4760 1.4248 6.2298 -0.0000 -0.0000 0.0000 -68.3473 -19.6407 86.3282 93.0975 -59.9637 -62.6822 -0.0000 0.0000 -46.7789 -23.1387 19.4363 -8.0932 -7.1250 0.0000 -0.0000 -45.4680 44.3173 0.9875 -0.0000 -0.0000 0.0000 87.4945 15.3445 39.4641 -80.8892 59.6840 -52.1182 0.0000 -0.0000 -92.0629 14.6131 2.5039 0.6526 7.1250 -0.0000 -0.0000 30.1931 -26.6403 15.5922
2.1716 16.5525 17.5578 -2.1480 -3.4164 18.4692 0.0000 0.0000 0.0000 3.2210 -24.8808 -67.8218 3.9768 12.1295 36.1917 0.5225 18.5137 -30.1057 5.0589 13.4498 41.0765 0.0000 0.0000 0.0000 33.4155 6.7503 -22.3635 -3.3443 -11.2326 33.0683 -4.0199 -17.4632 -46.5137 -1.6004 -7.9788 22.6498 3.7032 1.3937 2.9269 0.4050 2.2041 -7.4466 -1.8815 0.8239 -9.3961 0.1412 2.5787 -6.9620 0.6754 3.3905 16.2711 0.4352 1.7048 6.0612 -0.0000 -0.0000 0.0000 -67.4449 -21.2522 87.3119 89.6144 -59.9994 -59.6661 -0.0000 0.0000 -45.2240 -24.2892 19.7661 -8.6774 -7.1250 0.0000 -0.0000 -46.4860 44.4074 0.8878 -0.0000 -0.0000 0.0000 87.8437 15.1319 39.8409 -75.8921 59.2344 -47.8136 0.0000 -0.0000 -90.5019 14.9423 2.6327 0.7023 7.1250 -0.0000 -0.0000 30.3702 -26.5020 15.8341
2.1799 16.5477 17.6344 -2.5352 -3.4089 18.5863 0.0000 0.0000 0.0000 3.7336 -25.1240 -68.1155 4.0514 12.2285 36.5451 -0.0682 21.4005 -29.7258 4.6197 12.9422 39.1527 0.0000 0.0000 0.0000 33.8093 6.5170 -22.3096 -3.3649 -11.2635 33.1738 -3.7408 -18.3074 -45.9843 -1.2498 -7.0880 19.9762 4.0883 1.2393 2.9815 0.5241 2.0371 -7.4464 -1.9539 0.7174 -9.4337 0.4751 2.9442 -7.2125 0.4269 3.8796 15.5660 0.3341 1.9441 5.8935 0.0000 -0.0000 0.0000 -66.5830 -22.9839 88.0293 85.8419 -59.9346 -56.3998 -0.0000 0.0000 -43.0974 -26.3625 20.2013 -9.7113 -7.1250 0.0000 -0.0000 -48.1873 44.4349 0.8989 0.0000 -0.0000 0.0000 88.0630 15.0931 39.9749 -70.7633 58.5545 -43.4214 0.0000 -0.0000 -88.4246 15.0153 2.6096 0.6997 7.1250 -0.0000 -0.0000 30.4232 -26.5175 15.8580
2.1852 16.5318 17.6976 -2.9379 -3.4209 18.5510 0.0000 0.0000 0.0000 2.0042 -23.3488 -68.3291 4.1500 12.3574 37.0082 -1.3421 25.1686 -26.0073 4.2794 12.5232 37.6090 0.0000 0.0000 0.0000 34.2330 6.4676 -22.0498 -3.3959 -11.3099 33.3322 -3.6461 -18.6372 -45.8392 -1.1026 -6.6719 18.7468 4.4395 1.1111 3.3895 0.6486 1.9222 -7.3727 -2.0153 0.6368 -9.6001 0.6305 3.2560 -7.8235 0.2803 4.2974 14.8520 0.2960 2.1453 5.7816 0.0000 -0.0000 0.0000 -65.6246 -24.9255 88.6232 82.1778 -59.7675 -53.2311 -0.0000 0.0000 -40.7622 -28.9014 20.5101 -10.9474 -7.1250 0.0000 -0.0000 -50.0501 44.2790 1.2284 0.0000 -0.0000 0.0000 88.2720 15.1494 39.8462 -65.4213 57.5895 -38.8865 0.0000 -0.0000 -85.6086 15.2557 2.4623 0.6713 7.1250 -0.0000 -0.0000 30.6168 -26.6313 15.8955
